<svg xmlns="http://www.w3.org/2000/svg" viewBox="0 0 128 128" width="128" height="128">
<rect width="128" height="128" fill="#0a0a0a"/>
  <rect x="0.00" y="0.00" width="7.75" height="4.97" rx="2.5" fill="rgb(7,64,64)"/>
  <rect x="9.25" y="0.00" width="7.75" height="4.97" rx="2.5" fill="rgb(7,64,64)"/>
  <rect x="18.50" y="0.00" width="7.75" height="4.97" rx="2.5" fill="rgb(7,64,64)"/>
  <rect x="27.75" y="0.00" width="7.75" height="4.97" rx="2.5" fill="rgb(7,64,64)"/>
  <rect x="37.00" y="0.00" width="7.75" height="4.97" rx="2.5" fill="rgb(7,64,64)"/>
  <rect x="46.25" y="0.00" width="7.75" height="4.97" rx="2.5" fill="rgb(8,76,76)"/>
  <rect x="55.50" y="0.00" width="7.75" height="4.97" rx="2.5" fill="rgb(10,88,88)"/>
  <rect x="64.75" y="0.00" width="7.75" height="4.97" rx="2.5" fill="rgb(11,100,100)"/>
  <rect x="74.00" y="0.00" width="7.75" height="4.97" rx="2.5" fill="rgb(12,111,111)"/>
  <rect x="83.25" y="0.00" width="7.75" height="4.97" rx="2.5" fill="rgb(14,123,123)"/>
  <rect x="92.50" y="0.00" width="7.75" height="4.97" rx="2.5" fill="rgb(10,194,194)"/>
  <rect x="101.75" y="0.00" width="7.75" height="4.97" rx="2.5" fill="rgb(42,244,244)"/>
  <rect x="111.00" y="0.00" width="7.75" height="4.97" rx="2.5" fill="rgb(10,194,194)"/>
  <rect x="120.25" y="0.00" width="7.75" height="4.97" rx="2.5" fill="rgb(14,123,123)"/>
  <rect x="0.00" y="6.47" width="7.75" height="4.97" rx="2.5" fill="rgb(7,64,58)"/>
  <rect x="9.25" y="6.47" width="7.75" height="4.97" rx="2.5" fill="rgb(7,64,58)"/>
  <rect x="18.50" y="6.47" width="7.75" height="4.97" rx="2.5" fill="rgb(7,64,58)"/>
  <rect x="27.75" y="6.47" width="7.75" height="4.97" rx="2.5" fill="rgb(7,64,58)"/>
  <rect x="37.00" y="6.47" width="7.75" height="4.97" rx="2.5" fill="rgb(8,71,64)"/>
  <rect x="46.25" y="6.47" width="7.75" height="4.97" rx="2.5" fill="rgb(9,82,74)"/>
  <rect x="55.50" y="6.47" width="7.75" height="4.97" rx="2.5" fill="rgb(10,94,85)"/>
  <rect x="64.75" y="6.47" width="7.75" height="4.97" rx="2.5" fill="rgb(12,106,96)"/>
  <rect x="74.00" y="6.47" width="7.75" height="4.97" rx="2.5" fill="rgb(13,118,106)"/>
  <rect x="83.25" y="6.47" width="7.75" height="4.97" rx="2.5" fill="rgb(8,158,142)"/>
  <rect x="92.50" y="6.47" width="7.75" height="4.97" rx="2.5" fill="rgb(12,236,211)"/>
  <rect x="101.75" y="6.47" width="7.75" height="4.97" rx="2.5" fill="rgb(12,229,205)"/>
  <rect x="111.00" y="6.47" width="7.75" height="4.97" rx="2.5" fill="rgb(8,152,136)"/>
  <rect x="120.25" y="6.47" width="7.75" height="4.97" rx="2.5" fill="rgb(13,117,105)"/>
  <rect x="0.00" y="12.95" width="7.75" height="4.97" rx="2.5" fill="rgb(7,64,52)"/>
  <rect x="9.25" y="12.95" width="7.75" height="4.97" rx="2.5" fill="rgb(7,64,52)"/>
  <rect x="18.50" y="12.95" width="7.75" height="4.97" rx="2.5" fill="rgb(7,65,52)"/>
  <rect x="27.75" y="12.95" width="7.75" height="4.97" rx="2.5" fill="rgb(9,77,62)"/>
  <rect x="37.00" y="12.95" width="7.75" height="4.97" rx="2.5" fill="rgb(10,88,71)"/>
  <rect x="46.25" y="12.95" width="7.75" height="4.97" rx="2.5" fill="rgb(11,100,81)"/>
  <rect x="55.50" y="12.95" width="7.75" height="4.97" rx="2.5" fill="rgb(12,112,90)"/>
  <rect x="64.75" y="12.95" width="7.75" height="4.97" rx="2.5" fill="rgb(6,119,95)"/>
  <rect x="74.00" y="12.95" width="7.75" height="4.97" rx="2.5" fill="rgb(10,197,156)"/>
  <rect x="83.25" y="12.95" width="7.75" height="4.97" rx="2.5" fill="rgb(39,244,199)"/>
  <rect x="92.50" y="12.95" width="7.75" height="4.97" rx="2.5" fill="rgb(10,191,151)"/>
  <rect x="101.75" y="12.95" width="7.75" height="4.97" rx="2.5" fill="rgb(14,123,99)"/>
  <rect x="111.00" y="12.95" width="7.75" height="4.97" rx="2.5" fill="rgb(12,111,89)"/>
  <rect x="120.25" y="12.95" width="7.75" height="4.97" rx="2.5" fill="rgb(11,99,80)"/>
  <rect x="0.00" y="19.42" width="7.75" height="4.97" rx="2.5" fill="rgb(7,66,47)"/>
  <rect x="9.25" y="19.42" width="7.75" height="4.97" rx="2.5" fill="rgb(9,78,55)"/>
  <rect x="18.50" y="19.42" width="7.75" height="4.97" rx="2.5" fill="rgb(10,89,63)"/>
  <rect x="27.75" y="19.42" width="7.75" height="4.97" rx="2.5" fill="rgb(11,101,72)"/>
  <rect x="37.00" y="19.42" width="7.75" height="4.97" rx="2.5" fill="rgb(13,113,80)"/>
  <rect x="46.25" y="19.42" width="7.75" height="4.97" rx="2.5" fill="rgb(7,126,87)"/>
  <rect x="55.50" y="19.42" width="7.75" height="4.97" rx="2.5" fill="rgb(11,204,140)"/>
  <rect x="64.75" y="19.42" width="7.75" height="4.97" rx="2.5" fill="rgb(32,243,174)"/>
  <rect x="74.00" y="19.42" width="7.75" height="4.97" rx="2.5" fill="rgb(10,184,127)"/>
  <rect x="83.25" y="19.42" width="7.75" height="4.97" rx="2.5" fill="rgb(14,122,86)"/>
  <rect x="92.50" y="19.42" width="7.75" height="4.97" rx="2.5" fill="rgb(12,110,78)"/>
  <rect x="101.75" y="19.42" width="7.75" height="4.97" rx="2.5" fill="rgb(11,98,69)"/>
  <rect x="111.00" y="19.42" width="7.75" height="4.97" rx="2.5" fill="rgb(10,86,61)"/>
  <rect x="120.25" y="19.42" width="7.75" height="4.97" rx="2.5" fill="rgb(8,75,53)"/>
  <rect x="0.00" y="25.90" width="7.75" height="4.97" rx="2.5" fill="rgb(10,91,56)"/>
  <rect x="9.25" y="25.90" width="7.75" height="4.97" rx="2.5" fill="rgb(11,103,63)"/>
  <rect x="18.50" y="25.90" width="7.75" height="4.97" rx="2.5" fill="rgb(13,115,70)"/>
  <rect x="27.75" y="25.90" width="7.75" height="4.97" rx="2.5" fill="rgb(7,140,82)"/>
  <rect x="37.00" y="25.90" width="7.75" height="4.97" rx="2.5" fill="rgb(11,218,127)"/>
  <rect x="46.25" y="25.90" width="7.75" height="4.97" rx="2.5" fill="rgb(18,243,144)"/>
  <rect x="55.50" y="25.90" width="7.75" height="4.97" rx="2.5" fill="rgb(9,170,99)"/>
  <rect x="64.75" y="25.90" width="7.75" height="4.97" rx="2.5" fill="rgb(13,120,73)"/>
  <rect x="74.00" y="25.90" width="7.75" height="4.97" rx="2.5" fill="rgb(12,108,66)"/>
  <rect x="83.25" y="25.90" width="7.75" height="4.97" rx="2.5" fill="rgb(11,96,59)"/>
  <rect x="92.50" y="25.90" width="7.75" height="4.97" rx="2.5" fill="rgb(9,84,51)"/>
  <rect x="101.75" y="25.90" width="7.75" height="4.97" rx="2.5" fill="rgb(8,72,44)"/>
  <rect x="111.00" y="25.90" width="7.75" height="4.97" rx="2.5" fill="rgb(7,64,39)"/>
  <rect x="120.25" y="25.90" width="7.75" height="4.97" rx="2.5" fill="rgb(7,64,39)"/>
  <rect x="0.00" y="32.38" width="7.75" height="4.97" rx="2.5" fill="rgb(12,112,57)"/>
  <rect x="9.25" y="32.38" width="7.75" height="4.97" rx="2.5" fill="rgb(6,120,58)"/>
  <rect x="18.50" y="32.38" width="7.75" height="4.97" rx="2.5" fill="rgb(10,198,95)"/>
  <rect x="27.75" y="32.38" width="7.75" height="4.97" rx="2.5" fill="rgb(38,244,131)"/>
  <rect x="37.00" y="32.38" width="7.75" height="4.97" rx="2.5" fill="rgb(10,190,91)"/>
  <rect x="46.25" y="32.38" width="7.75" height="4.97" rx="2.5" fill="rgb(14,123,63)"/>
  <rect x="55.50" y="32.38" width="7.75" height="4.97" rx="2.5" fill="rgb(12,111,57)"/>
  <rect x="64.75" y="32.38" width="7.75" height="4.97" rx="2.5" fill="rgb(11,99,51)"/>
  <rect x="74.00" y="32.38" width="7.75" height="4.97" rx="2.5" fill="rgb(10,87,45)"/>
  <rect x="83.25" y="32.38" width="7.75" height="4.97" rx="2.5" fill="rgb(8,75,39)"/>
  <rect x="92.50" y="32.38" width="7.75" height="4.97" rx="2.5" fill="rgb(7,64,33)"/>
  <rect x="101.75" y="32.38" width="7.75" height="4.97" rx="2.5" fill="rgb(7,64,33)"/>
  <rect x="111.00" y="32.38" width="7.75" height="4.97" rx="2.5" fill="rgb(7,64,33)"/>
  <rect x="120.25" y="32.38" width="7.75" height="4.97" rx="2.5" fill="rgb(7,64,33)"/>
  <rect x="0.00" y="38.85" width="7.75" height="4.97" rx="2.5" fill="rgb(14,123,51)"/>
  <rect x="9.25" y="38.85" width="7.75" height="4.97" rx="2.5" fill="rgb(10,189,71)"/>
  <rect x="18.50" y="38.85" width="7.75" height="4.97" rx="2.5" fill="rgb(37,244,108)"/>
  <rect x="27.75" y="38.85" width="7.75" height="4.97" rx="2.5" fill="rgb(10,199,75)"/>
  <rect x="37.00" y="38.85" width="7.75" height="4.97" rx="2.5" fill="rgb(6,121,46)"/>
  <rect x="46.25" y="38.85" width="7.75" height="4.97" rx="2.5" fill="rgb(12,112,47)"/>
  <rect x="55.50" y="38.85" width="7.75" height="4.97" rx="2.5" fill="rgb(11,100,42)"/>
  <rect x="64.75" y="38.85" width="7.75" height="4.97" rx="2.5" fill="rgb(10,89,37)"/>
  <rect x="74.00" y="38.85" width="7.75" height="4.97" rx="2.5" fill="rgb(9,77,32)"/>
  <rect x="83.25" y="38.85" width="7.75" height="4.97" rx="2.5" fill="rgb(7,65,27)"/>
  <rect x="92.50" y="38.85" width="7.75" height="4.97" rx="2.5" fill="rgb(7,64,27)"/>
  <rect x="101.75" y="38.85" width="7.75" height="4.97" rx="2.5" fill="rgb(7,64,27)"/>
  <rect x="111.00" y="38.85" width="7.75" height="4.97" rx="2.5" fill="rgb(7,64,27)"/>
  <rect x="120.25" y="38.85" width="7.75" height="4.97" rx="2.5" fill="rgb(7,64,27)"/>
  <rect x="0.00" y="45.32" width="7.75" height="4.97" rx="2.5" fill="rgb(13,120,38)"/>
  <rect x="9.25" y="45.32" width="7.75" height="4.97" rx="2.5" fill="rgb(9,175,48)"/>
  <rect x="18.50" y="45.32" width="7.75" height="4.97" rx="2.5" fill="rgb(23,243,74)"/>
  <rect x="27.75" y="45.32" width="7.75" height="4.97" rx="2.5" fill="rgb(11,213,58)"/>
  <rect x="37.00" y="45.32" width="7.75" height="4.97" rx="2.5" fill="rgb(7,135,37)"/>
  <rect x="46.25" y="45.32" width="7.75" height="4.97" rx="2.5" fill="rgb(13,114,36)"/>
  <rect x="55.50" y="45.32" width="7.75" height="4.97" rx="2.5" fill="rgb(11,103,33)"/>
  <rect x="64.75" y="45.32" width="7.75" height="4.97" rx="2.5" fill="rgb(10,91,29)"/>
  <rect x="74.00" y="45.32" width="7.75" height="4.97" rx="2.5" fill="rgb(9,79,25)"/>
  <rect x="83.25" y="45.32" width="7.75" height="4.97" rx="2.5" fill="rgb(7,67,21)"/>
  <rect x="92.50" y="45.32" width="7.75" height="4.97" rx="2.5" fill="rgb(7,64,20)"/>
  <rect x="101.75" y="45.32" width="7.75" height="4.97" rx="2.5" fill="rgb(7,64,20)"/>
  <rect x="111.00" y="45.32" width="7.75" height="4.97" rx="2.5" fill="rgb(7,64,20)"/>
  <rect x="120.25" y="45.32" width="7.75" height="4.97" rx="2.5" fill="rgb(7,64,20)"/>
  <rect x="0.00" y="51.80" width="7.75" height="4.97" rx="2.5" fill="rgb(12,106,22)"/>
  <rect x="9.25" y="51.80" width="7.75" height="4.97" rx="2.5" fill="rgb(13,118,24)"/>
  <rect x="18.50" y="51.80" width="7.75" height="4.97" rx="2.5" fill="rgb(8,159,25)"/>
  <rect x="27.75" y="51.80" width="7.75" height="4.97" rx="2.5" fill="rgb(12,236,37)"/>
  <rect x="37.00" y="51.80" width="7.75" height="4.97" rx="2.5" fill="rgb(12,229,35)"/>
  <rect x="46.25" y="51.80" width="7.75" height="4.97" rx="2.5" fill="rgb(8,151,23)"/>
  <rect x="55.50" y="51.80" width="7.75" height="4.97" rx="2.5" fill="rgb(13,117,24)"/>
  <rect x="64.75" y="51.80" width="7.75" height="4.97" rx="2.5" fill="rgb(12,105,22)"/>
  <rect x="74.00" y="51.80" width="7.75" height="4.97" rx="2.5" fill="rgb(10,93,19)"/>
  <rect x="83.25" y="51.80" width="7.75" height="4.97" rx="2.5" fill="rgb(9,81,17)"/>
  <rect x="92.50" y="51.80" width="7.75" height="4.97" rx="2.5" fill="rgb(8,70,14)"/>
  <rect x="101.75" y="51.80" width="7.75" height="4.97" rx="2.5" fill="rgb(7,64,13)"/>
  <rect x="111.00" y="51.80" width="7.75" height="4.97" rx="2.5" fill="rgb(7,64,13)"/>
  <rect x="120.25" y="51.80" width="7.75" height="4.97" rx="2.5" fill="rgb(7,64,13)"/>
  <rect x="0.00" y="58.27" width="7.75" height="4.97" rx="2.5" fill="rgb(12,83,9)"/>
  <rect x="9.25" y="58.27" width="7.75" height="4.97" rx="2.5" fill="rgb(14,95,11)"/>
  <rect x="18.50" y="58.27" width="7.75" height="4.97" rx="2.5" fill="rgb(16,107,12)"/>
  <rect x="27.75" y="58.27" width="7.75" height="4.97" rx="2.5" fill="rgb(17,119,13)"/>
  <rect x="37.00" y="58.27" width="7.75" height="4.97" rx="2.5" fill="rgb(15,163,9)"/>
  <rect x="46.25" y="58.27" width="7.75" height="4.97" rx="2.5" fill="rgb(21,241,13)"/>
  <rect x="55.50" y="58.27" width="7.75" height="4.97" rx="2.5" fill="rgb(20,224,12)"/>
  <rect x="64.75" y="58.27" width="7.75" height="4.97" rx="2.5" fill="rgb(13,147,8)"/>
  <rect x="74.00" y="58.27" width="7.75" height="4.97" rx="2.5" fill="rgb(17,116,13)"/>
  <rect x="83.25" y="58.27" width="7.75" height="4.97" rx="2.5" fill="rgb(15,104,12)"/>
  <rect x="92.50" y="58.27" width="7.75" height="4.97" rx="2.5" fill="rgb(13,93,10)"/>
  <rect x="101.75" y="58.27" width="7.75" height="4.97" rx="2.5" fill="rgb(12,81,9)"/>
  <rect x="111.00" y="58.27" width="7.75" height="4.97" rx="2.5" fill="rgb(10,69,8)"/>
  <rect x="120.25" y="58.27" width="7.75" height="4.97" rx="2.5" fill="rgb(9,64,7)"/>
  <rect x="0.00" y="64.75" width="7.75" height="4.97" rx="2.5" fill="rgb(18,64,7)"/>
  <rect x="9.25" y="64.75" width="7.75" height="4.97" rx="2.5" fill="rgb(19,69,8)"/>
  <rect x="18.50" y="64.75" width="7.75" height="4.97" rx="2.5" fill="rgb(22,81,9)"/>
  <rect x="27.75" y="64.75" width="7.75" height="4.97" rx="2.5" fill="rgb(25,93,10)"/>
  <rect x="37.00" y="64.75" width="7.75" height="4.97" rx="2.5" fill="rgb(29,104,12)"/>
  <rect x="46.25" y="64.75" width="7.75" height="4.97" rx="2.5" fill="rgb(32,116,13)"/>
  <rect x="55.50" y="64.75" width="7.75" height="4.97" rx="2.5" fill="rgb(33,147,8)"/>
  <rect x="64.75" y="64.75" width="7.75" height="4.97" rx="2.5" fill="rgb(51,224,12)"/>
  <rect x="74.00" y="64.75" width="7.75" height="4.97" rx="2.5" fill="rgb(55,241,13)"/>
  <rect x="83.25" y="64.75" width="7.75" height="4.97" rx="2.5" fill="rgb(37,163,9)"/>
  <rect x="92.50" y="64.75" width="7.75" height="4.97" rx="2.5" fill="rgb(33,119,13)"/>
  <rect x="101.75" y="64.75" width="7.75" height="4.97" rx="2.5" fill="rgb(29,107,12)"/>
  <rect x="111.00" y="64.75" width="7.75" height="4.97" rx="2.5" fill="rgb(26,95,11)"/>
  <rect x="120.25" y="64.75" width="7.75" height="4.97" rx="2.5" fill="rgb(23,83,9)"/>
  <rect x="0.00" y="71.22" width="7.75" height="4.97" rx="2.5" fill="rgb(26,64,7)"/>
  <rect x="9.25" y="71.22" width="7.75" height="4.97" rx="2.5" fill="rgb(26,64,7)"/>
  <rect x="18.50" y="71.22" width="7.75" height="4.97" rx="2.5" fill="rgb(26,64,7)"/>
  <rect x="27.75" y="71.22" width="7.75" height="4.97" rx="2.5" fill="rgb(28,70,8)"/>
  <rect x="37.00" y="71.22" width="7.75" height="4.97" rx="2.5" fill="rgb(33,81,9)"/>
  <rect x="46.25" y="71.22" width="7.75" height="4.97" rx="2.5" fill="rgb(38,93,10)"/>
  <rect x="55.50" y="71.22" width="7.75" height="4.97" rx="2.5" fill="rgb(43,105,12)"/>
  <rect x="64.75" y="71.22" width="7.75" height="4.97" rx="2.5" fill="rgb(47,117,13)"/>
  <rect x="74.00" y="71.22" width="7.75" height="4.97" rx="2.5" fill="rgb(55,151,8)"/>
  <rect x="83.25" y="71.22" width="7.75" height="4.97" rx="2.5" fill="rgb(84,229,12)"/>
  <rect x="92.50" y="71.22" width="7.75" height="4.97" rx="2.5" fill="rgb(87,236,12)"/>
  <rect x="101.75" y="71.22" width="7.75" height="4.97" rx="2.5" fill="rgb(58,159,8)"/>
  <rect x="111.00" y="71.22" width="7.75" height="4.97" rx="2.5" fill="rgb(48,118,13)"/>
  <rect x="120.25" y="71.22" width="7.75" height="4.97" rx="2.5" fill="rgb(43,106,12)"/>
  <rect x="0.00" y="77.70" width="7.75" height="4.97" rx="2.5" fill="rgb(34,64,7)"/>
  <rect x="9.25" y="77.70" width="7.75" height="4.97" rx="2.5" fill="rgb(34,64,7)"/>
  <rect x="18.50" y="77.70" width="7.75" height="4.97" rx="2.5" fill="rgb(34,64,7)"/>
  <rect x="27.75" y="77.70" width="7.75" height="4.97" rx="2.5" fill="rgb(34,64,7)"/>
  <rect x="37.00" y="77.70" width="7.75" height="4.97" rx="2.5" fill="rgb(36,67,7)"/>
  <rect x="46.25" y="77.70" width="7.75" height="4.97" rx="2.5" fill="rgb(42,79,9)"/>
  <rect x="55.50" y="77.70" width="7.75" height="4.97" rx="2.5" fill="rgb(49,91,10)"/>
  <rect x="64.75" y="77.70" width="7.75" height="4.97" rx="2.5" fill="rgb(55,103,11)"/>
  <rect x="74.00" y="77.70" width="7.75" height="4.97" rx="2.5" fill="rgb(61,114,13)"/>
  <rect x="83.25" y="77.70" width="7.75" height="4.97" rx="2.5" fill="rgb(68,135,7)"/>
  <rect x="92.50" y="77.70" width="7.75" height="4.97" rx="2.5" fill="rgb(107,213,11)"/>
  <rect x="101.75" y="77.70" width="7.75" height="4.97" rx="2.5" fill="rgb(128,243,23)"/>
  <rect x="111.00" y="77.70" width="7.75" height="4.97" rx="2.5" fill="rgb(88,175,9)"/>
  <rect x="120.25" y="77.70" width="7.75" height="4.97" rx="2.5" fill="rgb(65,120,13)"/>
  <rect x="0.00" y="84.17" width="7.75" height="4.97" rx="2.5" fill="rgb(43,64,7)"/>
  <rect x="9.25" y="84.17" width="7.75" height="4.97" rx="2.5" fill="rgb(43,64,7)"/>
  <rect x="18.50" y="84.17" width="7.75" height="4.97" rx="2.5" fill="rgb(43,64,7)"/>
  <rect x="27.75" y="84.17" width="7.75" height="4.97" rx="2.5" fill="rgb(43,64,7)"/>
  <rect x="37.00" y="84.17" width="7.75" height="4.97" rx="2.5" fill="rgb(43,65,7)"/>
  <rect x="46.25" y="84.17" width="7.75" height="4.97" rx="2.5" fill="rgb(51,77,9)"/>
  <rect x="55.50" y="84.17" width="7.75" height="4.97" rx="2.5" fill="rgb(59,89,10)"/>
  <rect x="64.75" y="84.17" width="7.75" height="4.97" rx="2.5" fill="rgb(67,100,11)"/>
  <rect x="74.00" y="84.17" width="7.75" height="4.97" rx="2.5" fill="rgb(75,112,12)"/>
  <rect x="83.25" y="84.17" width="7.75" height="4.97" rx="2.5" fill="rgb(78,121,6)"/>
  <rect x="92.50" y="84.17" width="7.75" height="4.97" rx="2.5" fill="rgb(128,199,10)"/>
  <rect x="101.75" y="84.17" width="7.75" height="4.97" rx="2.5" fill="rgb(166,244,37)"/>
  <rect x="111.00" y="84.17" width="7.75" height="4.97" rx="2.5" fill="rgb(122,189,10)"/>
  <rect x="120.25" y="84.17" width="7.75" height="4.97" rx="2.5" fill="rgb(82,123,14)"/>
  <rect x="0.00" y="90.65" width="7.75" height="4.97" rx="2.5" fill="rgb(51,64,7)"/>
  <rect x="9.25" y="90.65" width="7.75" height="4.97" rx="2.5" fill="rgb(51,64,7)"/>
  <rect x="18.50" y="90.65" width="7.75" height="4.97" rx="2.5" fill="rgb(51,64,7)"/>
  <rect x="27.75" y="90.65" width="7.75" height="4.97" rx="2.5" fill="rgb(51,64,7)"/>
  <rect x="37.00" y="90.65" width="7.75" height="4.97" rx="2.5" fill="rgb(60,75,8)"/>
  <rect x="46.25" y="90.65" width="7.75" height="4.97" rx="2.5" fill="rgb(69,87,10)"/>
  <rect x="55.50" y="90.65" width="7.75" height="4.97" rx="2.5" fill="rgb(79,99,11)"/>
  <rect x="64.75" y="90.65" width="7.75" height="4.97" rx="2.5" fill="rgb(88,111,12)"/>
  <rect x="74.00" y="90.65" width="7.75" height="4.97" rx="2.5" fill="rgb(98,123,14)"/>
  <rect x="83.25" y="90.65" width="7.75" height="4.97" rx="2.5" fill="rgb(149,190,10)"/>
  <rect x="92.50" y="90.65" width="7.75" height="4.97" rx="2.5" fill="rgb(196,244,38)"/>
  <rect x="101.75" y="90.65" width="7.75" height="4.97" rx="2.5" fill="rgb(155,198,10)"/>
  <rect x="111.00" y="90.65" width="7.75" height="4.97" rx="2.5" fill="rgb(94,120,6)"/>
  <rect x="120.25" y="90.65" width="7.75" height="4.97" rx="2.5" fill="rgb(89,112,12)"/>
  <rect x="0.00" y="97.13" width="7.75" height="4.97" rx="2.5" fill="rgb(60,64,7)"/>
  <rect x="9.25" y="97.13" width="7.75" height="4.97" rx="2.5" fill="rgb(60,64,7)"/>
  <rect x="18.50" y="97.13" width="7.75" height="4.97" rx="2.5" fill="rgb(67,72,8)"/>
  <rect x="27.75" y="97.13" width="7.75" height="4.97" rx="2.5" fill="rgb(78,84,9)"/>
  <rect x="37.00" y="97.13" width="7.75" height="4.97" rx="2.5" fill="rgb(89,96,11)"/>
  <rect x="46.25" y="97.13" width="7.75" height="4.97" rx="2.5" fill="rgb(100,108,12)"/>
  <rect x="55.50" y="97.13" width="7.75" height="4.97" rx="2.5" fill="rgb(111,120,13)"/>
  <rect x="64.75" y="97.13" width="7.75" height="4.97" rx="2.5" fill="rgb(157,170,9)"/>
  <rect x="74.00" y="97.13" width="7.75" height="4.97" rx="2.5" fill="rgb(224,243,18)"/>
  <rect x="83.25" y="97.13" width="7.75" height="4.97" rx="2.5" fill="rgb(201,218,11)"/>
  <rect x="92.50" y="97.13" width="7.75" height="4.97" rx="2.5" fill="rgb(129,140,7)"/>
  <rect x="101.75" y="97.13" width="7.75" height="4.97" rx="2.5" fill="rgb(107,115,13)"/>
  <rect x="111.00" y="97.13" width="7.75" height="4.97" rx="2.5" fill="rgb(96,103,11)"/>
  <rect x="120.25" y="97.13" width="7.75" height="4.97" rx="2.5" fill="rgb(85,91,10)"/>
  <rect x="0.00" y="103.60" width="7.75" height="4.97" rx="2.5" fill="rgb(75,70,8)"/>
  <rect x="9.25" y="103.60" width="7.75" height="4.97" rx="2.5" fill="rgb(86,81,10)"/>
  <rect x="18.50" y="103.60" width="7.75" height="4.97" rx="2.5" fill="rgb(98,93,11)"/>
  <rect x="27.75" y="103.60" width="7.75" height="4.97" rx="2.5" fill="rgb(110,104,12)"/>
  <rect x="37.00" y="103.60" width="7.75" height="4.97" rx="2.5" fill="rgb(122,115,14)"/>
  <rect x="46.25" y="103.60" width="7.75" height="4.97" rx="2.5" fill="rgb(184,173,10)"/>
  <rect x="55.50" y="103.60" width="7.75" height="4.97" rx="2.5" fill="rgb(243,230,32)"/>
  <rect x="64.75" y="103.60" width="7.75" height="4.97" rx="2.5" fill="rgb(204,191,11)"/>
  <rect x="74.00" y="103.60" width="7.75" height="4.97" rx="2.5" fill="rgb(126,119,7)"/>
  <rect x="83.25" y="103.60" width="7.75" height="4.97" rx="2.5" fill="rgb(113,107,13)"/>
  <rect x="92.50" y="103.60" width="7.75" height="4.97" rx="2.5" fill="rgb(101,95,11)"/>
  <rect x="101.75" y="103.60" width="7.75" height="4.97" rx="2.5" fill="rgb(89,84,10)"/>
  <rect x="111.00" y="103.60" width="7.75" height="4.97" rx="2.5" fill="rgb(78,73,9)"/>
  <rect x="120.25" y="103.60" width="7.75" height="4.97" rx="2.5" fill="rgb(66,62,7)"/>
  <rect x="0.00" y="110.07" width="7.75" height="4.97" rx="2.5" fill="rgb(99,81,11)"/>
  <rect x="9.25" y="110.07" width="7.75" height="4.97" rx="2.5" fill="rgb(111,90,12)"/>
  <rect x="18.50" y="110.07" width="7.75" height="4.97" rx="2.5" fill="rgb(123,100,14)"/>
  <rect x="27.75" y="110.07" width="7.75" height="4.97" rx="2.5" fill="rgb(191,153,10)"/>
  <rect x="37.00" y="110.07" width="7.75" height="4.97" rx="2.5" fill="rgb(244,201,39)"/>
  <rect x="46.25" y="110.07" width="7.75" height="4.97" rx="2.5" fill="rgb(197,158,10)"/>
  <rect x="55.50" y="110.07" width="7.75" height="4.97" rx="2.5" fill="rgb(119,96,6)"/>
  <rect x="64.75" y="110.07" width="7.75" height="4.97" rx="2.5" fill="rgb(112,91,12)"/>
  <rect x="74.00" y="110.07" width="7.75" height="4.97" rx="2.5" fill="rgb(100,81,11)"/>
  <rect x="83.25" y="110.07" width="7.75" height="4.97" rx="2.5" fill="rgb(88,72,10)"/>
  <rect x="92.50" y="110.07" width="7.75" height="4.97" rx="2.5" fill="rgb(77,62,9)"/>
  <rect x="101.75" y="110.07" width="7.75" height="4.97" rx="2.5" fill="rgb(65,53,7)"/>
  <rect x="111.00" y="110.07" width="7.75" height="4.97" rx="2.5" fill="rgb(64,52,7)"/>
  <rect x="120.25" y="110.07" width="7.75" height="4.97" rx="2.5" fill="rgb(64,52,7)"/>
  <rect x="0.00" y="116.55" width="7.75" height="4.97" rx="2.5" fill="rgb(117,80,13)"/>
  <rect x="9.25" y="116.55" width="7.75" height="4.97" rx="2.5" fill="rgb(152,100,8)"/>
  <rect x="18.50" y="116.55" width="7.75" height="4.97" rx="2.5" fill="rgb(229,152,12)"/>
  <rect x="27.75" y="116.55" width="7.75" height="4.97" rx="2.5" fill="rgb(236,156,12)"/>
  <rect x="37.00" y="116.55" width="7.75" height="4.97" rx="2.5" fill="rgb(158,105,8)"/>
  <rect x="46.25" y="116.55" width="7.75" height="4.97" rx="2.5" fill="rgb(118,80,13)"/>
  <rect x="55.50" y="116.55" width="7.75" height="4.97" rx="2.5" fill="rgb(106,72,12)"/>
  <rect x="64.75" y="116.55" width="7.75" height="4.97" rx="2.5" fill="rgb(94,64,10)"/>
  <rect x="74.00" y="116.55" width="7.75" height="4.97" rx="2.5" fill="rgb(82,56,9)"/>
  <rect x="83.25" y="116.55" width="7.75" height="4.97" rx="2.5" fill="rgb(71,48,8)"/>
  <rect x="92.50" y="116.55" width="7.75" height="4.97" rx="2.5" fill="rgb(64,44,7)"/>
  <rect x="101.75" y="116.55" width="7.75" height="4.97" rx="2.5" fill="rgb(64,44,7)"/>
  <rect x="111.00" y="116.55" width="7.75" height="4.97" rx="2.5" fill="rgb(64,44,7)"/>
  <rect x="120.25" y="116.55" width="7.75" height="4.97" rx="2.5" fill="rgb(64,44,7)"/>
  <rect x="0.00" y="123.02" width="7.75" height="4.97" rx="2.5" fill="rgb(123,68,14)"/>
  <rect x="9.25" y="123.02" width="7.75" height="4.97" rx="2.5" fill="rgb(194,101,10)"/>
  <rect x="18.50" y="123.02" width="7.75" height="4.97" rx="2.5" fill="rgb(244,142,42)"/>
  <rect x="27.75" y="123.02" width="7.75" height="4.97" rx="2.5" fill="rgb(194,101,10)"/>
  <rect x="37.00" y="123.02" width="7.75" height="4.97" rx="2.5" fill="rgb(123,68,14)"/>
  <rect x="46.25" y="123.02" width="7.75" height="4.97" rx="2.5" fill="rgb(111,62,12)"/>
  <rect x="55.50" y="123.02" width="7.75" height="4.97" rx="2.5" fill="rgb(100,55,11)"/>
  <rect x="64.75" y="123.02" width="7.75" height="4.97" rx="2.5" fill="rgb(88,49,10)"/>
  <rect x="74.00" y="123.02" width="7.75" height="4.97" rx="2.5" fill="rgb(76,42,8)"/>
  <rect x="83.25" y="123.02" width="7.75" height="4.97" rx="2.5" fill="rgb(64,36,7)"/>
  <rect x="92.50" y="123.02" width="7.75" height="4.97" rx="2.5" fill="rgb(64,36,7)"/>
  <rect x="101.75" y="123.02" width="7.75" height="4.97" rx="2.5" fill="rgb(64,36,7)"/>
  <rect x="111.00" y="123.02" width="7.75" height="4.97" rx="2.5" fill="rgb(64,36,7)"/>
  <rect x="120.25" y="123.02" width="7.75" height="4.97" rx="2.5" fill="rgb(64,36,7)"/>
</svg>